<svg width="214" height="48" viewBox="0 0 214 48" fill="none" xmlns="http://www.w3.org/2000/svg">
<g opacity="0.3" clip-path="url(#clip0_14466_27665)">
<path d="M24.0676 0C11.1853 0 0.742188 10.1867 0.742188 22.753C0.742188 35.3192 11.1853 45.5059 24.0676 45.5059C36.9502 45.5059 47.3932 35.3192 47.3932 22.753C47.3932 10.1867 36.9502 0 24.0676 0ZM26.1601 37.72C26.1519 37.72 26.1465 37.72 26.1383 37.72C26.0974 37.72 26.0591 37.7066 26.0291 37.68C25.9935 37.6507 25.9743 37.6053 25.9743 37.56V31.2397C25.9743 31.165 26.0263 31.1011 26.1001 31.0851C29.2823 30.355 31.8201 27.877 32.5713 24.7701C32.5878 24.6981 32.6532 24.6475 32.7297 24.6475H39.2065C39.2529 24.6475 39.2993 24.6661 39.3294 24.7008C39.3595 24.7354 39.3758 24.7806 39.3676 24.8286C38.4553 31.5274 33.022 36.8274 26.1601 37.72ZM39.2147 21.0022C39.2119 21.0022 39.2092 21.0022 39.2065 21.0022H32.727C32.6505 21.0022 32.5849 20.9517 32.5686 20.8797C31.6371 17.016 28.1542 14.3195 24.1004 14.3195C19.29 14.3195 15.3783 18.1352 15.3783 22.8275C15.3783 26.7818 18.1428 30.1792 22.1036 31.0877C22.1774 31.1037 22.2294 31.1677 22.2294 31.2422V37.5627C22.2294 37.608 22.2102 37.6507 22.1747 37.6826C22.1446 37.7093 22.1063 37.7226 22.0654 37.7226C22.0572 37.7226 22.0518 37.7226 22.0436 37.7226C14.425 36.7286 8.68035 30.3258 8.68035 22.8302C8.68035 14.5353 15.5996 7.78594 24.1004 7.78594C31.771 7.78594 38.3214 13.3682 39.3622 20.7758C39.3731 20.7971 39.3785 20.8211 39.3785 20.8451C39.3785 20.9304 39.3047 21.0022 39.2147 21.0022Z" fill="#30342D"/>
<path d="M60.8438 22.7875C60.8438 20.6773 61.2535 18.6654 62.0758 16.7523C62.898 14.8391 64.0153 13.1871 65.4329 11.7962C66.8506 10.4052 68.5553 9.29677 70.5521 8.47076C72.5461 7.6474 74.6658 7.23438 76.9113 7.23438C79.1567 7.23438 81.2628 7.65005 83.2297 8.48141C85.1964 9.31276 86.9255 10.4745 88.4116 11.964L85.0025 15.7051C82.8937 13.3043 80.1948 12.1026 76.9086 12.1026C74.9473 12.1026 73.1498 12.5902 71.5135 13.5681C69.8773 14.546 68.5962 15.8543 67.6701 17.4957C66.7441 19.1371 66.2797 20.917 66.2797 22.8275C66.2797 24.7541 66.7578 26.5286 67.7111 28.1514C68.6644 29.7741 69.9593 31.0584 71.5956 31.999C73.2317 32.9424 75.0183 33.4139 76.9522 33.4139C78.3727 33.4139 79.7823 33.1075 81.1809 32.4947C82.5794 31.8818 83.7732 31.0798 84.762 30.0912L87.9663 33.811C86.4775 35.2099 84.7975 36.305 82.9236 37.0965C81.0497 37.8878 79.0583 38.2848 76.9495 38.2848C74.0431 38.2848 71.3578 37.608 68.894 36.2571C66.43 34.9061 64.4741 33.0382 63.0209 30.6562C61.5703 28.2739 60.8438 25.652 60.8438 22.7875ZM91.5174 37.7493V7.74865H96.6284V19.9258C97.1282 19.5554 97.5516 19.2677 97.8958 19.0626C98.2401 18.8573 98.7727 18.6522 99.4884 18.447C100.204 18.2418 100.983 18.1379 101.821 18.1379C102.93 18.1379 103.957 18.303 104.905 18.6334C105.853 18.9638 106.703 19.4568 107.462 20.1176C108.219 20.7786 108.811 21.6658 109.238 22.7795C109.664 23.8934 109.877 25.183 109.877 26.6486V37.7493H104.763V27.472C104.763 24.4422 103.403 22.9261 100.685 22.9261C97.9805 22.9261 96.6284 24.4157 96.6284 27.392V37.7466H91.5174V37.7493ZM114.321 14.3782C113.698 13.7706 113.387 13.0272 113.387 12.1426C113.387 11.2579 113.698 10.5172 114.321 9.91495C114.944 9.31543 115.714 9.01433 116.635 9.01433C117.542 9.01433 118.298 9.3101 118.908 9.90429C119.517 10.4985 119.82 11.2446 119.82 12.1399C119.82 13.0379 119.517 13.7866 118.908 14.3861C118.298 14.9857 117.542 15.2868 116.635 15.2868C115.714 15.2894 114.941 14.9857 114.321 14.3782ZM114.056 37.7493V18.4949H119.167V37.7493H114.056ZM123.775 47.9998V18.4949H128.886V19.9258C130.389 18.7347 132.214 18.1379 134.363 18.1379C137.264 18.1379 139.731 19.1158 141.763 21.069C143.796 23.0221 144.812 25.3989 144.812 28.1994C144.812 30.0192 144.35 31.7034 143.424 33.2514C142.498 34.7995 141.233 36.0253 139.627 36.9285C138.021 37.8318 136.267 38.2822 134.363 38.2822C132.214 38.2822 130.386 37.688 128.886 36.5022V47.9998H123.775ZM128.889 28.4365C128.957 29.8194 129.52 31.0078 130.583 32.0018C131.645 32.9957 132.905 33.4939 134.366 33.4939C135.855 33.4939 137.13 32.9717 138.201 31.9245C139.269 30.8773 139.805 29.6355 139.805 28.2021C139.805 26.7792 139.269 25.5454 138.201 24.4982C137.133 23.451 135.855 22.9288 134.366 22.9288C132.905 22.9288 131.645 23.4298 130.583 24.429C129.52 25.4309 128.957 26.6139 128.889 27.9835V28.4365ZM147.735 47.9998V18.4949H152.846V19.9258C154.348 18.7347 156.173 18.1379 158.322 18.1379C161.223 18.1379 163.69 19.1158 165.722 21.069C167.754 23.0221 168.772 25.3989 168.772 28.1994C168.772 30.0192 168.309 31.7034 167.383 33.2514C166.458 34.7995 165.193 36.0253 163.586 36.9285C161.98 37.8318 160.226 38.2822 158.322 38.2822C156.173 38.2822 154.345 37.688 152.846 36.5022V47.9998H147.735ZM152.848 28.4365C152.917 29.8194 153.479 31.0078 154.542 32.0018C155.605 32.9957 156.864 33.4939 158.325 33.4939C159.814 33.4939 161.09 32.9717 162.161 31.9245C163.229 30.8773 163.764 29.6355 163.764 28.2021C163.764 26.7792 163.229 25.5454 162.161 24.4982C161.092 23.451 159.814 22.9288 158.325 22.9288C156.864 22.9288 155.605 23.4298 154.542 24.429C153.479 25.4309 152.917 26.6139 152.848 27.9835V28.4365ZM170.743 28.3086C170.743 26.9496 170.983 25.6547 171.465 24.421C171.945 23.1872 172.617 22.1054 173.484 21.1755C174.349 20.2456 175.428 19.5075 176.717 18.9586C178.01 18.4123 179.42 18.1379 180.946 18.1379C182.839 18.1379 184.549 18.5989 186.079 19.5235C187.605 20.448 188.791 21.671 189.629 23.1952C190.468 24.7194 190.887 26.3848 190.887 28.1914C190.887 28.7589 190.845 29.2866 190.764 29.7741H175.713C176.01 30.9811 176.641 31.9458 177.609 32.6678C178.575 33.3899 179.775 33.7498 181.209 33.7498C182.154 33.7498 183.06 33.5738 183.927 33.2195C184.793 32.8651 185.503 32.3322 186.057 31.6234L189.545 34.3253C188.652 35.5589 187.469 36.5235 185.994 37.227C184.519 37.9278 182.938 38.2795 181.247 38.2795C179.298 38.2795 177.521 37.8451 175.911 36.9739C174.303 36.1026 173.037 34.9035 172.117 33.3714C171.205 31.8445 170.743 30.1552 170.743 28.3086ZM175.898 26.113H185.737C185.589 25.1378 185.055 24.3197 184.133 23.6589C183.213 23.0008 182.14 22.6704 180.908 22.6704C179.73 22.6704 178.698 22.9848 177.805 23.6109C176.911 24.2371 176.274 25.0712 175.898 26.113ZM194.066 37.7493V18.4949H199.177V19.9258C200.122 19.2384 201.141 18.7667 202.231 18.5163C203.321 18.2658 204.831 18.1379 206.765 18.1379V22.9261C205.482 22.9261 204.381 22.9981 203.468 23.1446C202.556 23.2885 201.821 23.491 201.266 23.7469C200.713 24.0026 200.281 24.357 199.969 24.8046C199.658 25.2523 199.447 25.724 199.341 26.217C199.231 26.7099 199.18 27.3147 199.18 28.0262V37.7493H194.066ZM206.765 10.4798C206.765 10.1121 206.839 9.76041 206.986 9.42733C207.135 9.09426 207.332 8.80649 207.58 8.56668C207.828 8.32687 208.124 8.13501 208.465 7.99378C208.809 7.85257 209.167 7.78063 209.541 7.78063C209.916 7.78063 210.273 7.85257 210.615 7.99378C210.956 8.13767 211.249 8.32953 211.493 8.56934C211.74 8.80916 211.937 9.09959 212.081 9.43266C212.226 9.76573 212.3 10.1121 212.3 10.4745C212.3 10.8369 212.226 11.1833 212.081 11.519C211.933 11.8548 211.74 12.1426 211.492 12.385C211.245 12.6275 210.951 12.8194 210.609 12.9659C210.268 13.1098 209.909 13.1818 209.533 13.1818C209.033 13.1818 208.572 13.0618 208.145 12.822C207.722 12.5822 207.383 12.2545 207.135 11.8388C206.889 11.4231 206.765 10.9701 206.765 10.4798ZM207.287 10.4798C207.287 10.773 207.345 11.0501 207.461 11.3165C207.58 11.583 207.738 11.8122 207.938 12.0067C208.137 12.2012 208.375 12.3557 208.653 12.473C208.932 12.5875 209.225 12.6462 209.535 12.6462C209.945 12.6462 210.325 12.5476 210.669 12.3531C211.013 12.1586 211.287 11.8947 211.484 11.5617C211.682 11.2313 211.781 10.8689 211.781 10.4772C211.781 10.0802 211.682 9.70978 211.484 9.37138C211.287 9.03298 211.013 8.76119 210.663 8.56135C210.317 8.3615 209.937 8.26025 209.527 8.26025C209.117 8.26025 208.74 8.3615 208.396 8.56135C208.052 8.76119 207.781 9.03031 207.585 9.37138C207.386 9.70978 207.287 10.0802 207.287 10.4798ZM208.449 12.0093V8.93439H209.41C209.53 8.93439 209.634 8.93705 209.719 8.93972C209.804 8.94239 209.898 8.95305 210.005 8.96636C210.113 8.97969 210.202 8.99834 210.273 9.02233C210.346 9.04631 210.42 9.07828 210.495 9.12357C210.569 9.16621 210.628 9.21949 210.674 9.27812C210.721 9.33674 210.756 9.41135 210.786 9.50194C210.813 9.59255 210.831 9.6938 210.831 9.8057C210.831 10.3013 210.57 10.6051 210.049 10.7223L210.831 12.0173H210.199L209.445 10.765H208.975V12.012H208.449V12.0093ZM208.975 10.304H209.549C209.661 10.304 209.759 10.2987 209.839 10.288C209.917 10.2774 209.994 10.2587 210.066 10.2267C210.14 10.1974 210.194 10.1494 210.233 10.0855C210.271 10.0215 210.29 9.94161 210.29 9.84301C210.29 9.66716 210.229 9.54724 210.106 9.48863C209.983 9.43001 209.797 9.39802 209.549 9.39802H208.975V10.304Z" fill="#30342D"/>
</g>
<defs>
<clipPath id="clip0_14466_27665">
<rect width="212.8" height="48" fill="white" transform="translate(0.742188)"/>
</clipPath>
</defs>
</svg>
