<svg width="182" height="48" viewBox="0 0 182 48" fill="none" xmlns="http://www.w3.org/2000/svg">
<path d="M163.862 11.7549C165.912 11.7549 167.963 11.7549 170.076 11.7549C173.073 17.8928 176.024 24.0467 178.879 30.2447C179.01 30.5276 179.141 30.8106 179.275 31.1021C179.644 31.9018 180.012 32.702 180.379 33.5023C180.49 33.743 180.601 33.9836 180.715 34.2315C181.469 35.8801 181.469 35.8801 181.469 36.2447C179.418 36.2447 177.367 36.2447 175.254 36.2447C173.469 32.3263 173.469 31.8365 173.183 31.0202C169.082 31.0202 164.98 31.0202 160.754 31.0202C160.413 31.99 160.071 32.9598 159.719 33.959C159.377 34.7133 159.035 35.4675 158.683 36.2447C156.632 36.2447 154.582 36.2447 152.469 36.2447C154.211 32.1815 156.056 28.176 157.971 24.1835C158.5 23.0786 159.028 21.9735 159.556 20.8684C159.683 20.6011 159.811 20.3338 159.943 20.0584C161.263 17.2963 162.563 14.526 163.862 11.7549Z" fill="#30342D" fill-opacity="0.3"/>
<path d="M98.4688 11.7549C104.955 11.7549 111.441 11.7549 118.124 11.7549C118.124 13.2635 118.124 14.772 118.124 16.3263C113.572 16.3263 109.02 16.3263 104.331 16.3263C104.331 18.0504 104.331 19.7745 104.331 21.5508C108.314 21.5508 112.296 21.5508 116.4 21.5508C116.4 23.0594 116.4 24.5679 116.4 26.1222C112.531 26.1222 108.662 26.1222 104.676 26.1222C104.676 27.9541 104.676 29.7859 104.676 31.6733C109.227 31.6733 113.779 31.6733 118.469 31.6733C118.469 33.1818 118.469 34.6904 118.469 36.2447C111.869 36.2447 105.269 36.2447 98.4688 36.2447C98.4688 28.163 98.4688 20.0814 98.4688 11.7549Z" fill="#30342D" fill-opacity="0.3"/>
<path d="M55.2533 11.7842C55.5433 11.7747 55.8333 11.7652 56.132 11.7554C58.8711 11.7293 60.9491 12.6157 63.2361 14.0373C63.4472 14.1661 63.6584 14.295 63.8759 14.4277C64.4716 14.8458 64.9649 15.3007 65.4688 15.8192C64.9808 16.9479 64.3644 17.5762 63.4046 18.359C63.1605 18.5601 62.9163 18.7611 62.6648 18.9683C62.478 19.1187 62.2912 19.2691 62.0987 19.4241C61.2467 19.025 60.5088 18.6102 59.7186 18.0927C58.2415 17.1453 57.1632 17.0698 55.4218 17.0481C55.0165 17.0397 54.6112 17.0312 54.1936 17.0225C52.2315 17.1992 50.6914 18.0995 49.2925 19.4241C47.5867 21.5583 47.6515 24.043 47.9445 26.6337C48.4567 28.7784 49.5069 29.9542 51.3475 31.191C53.2727 32.2674 55.5721 32.0479 57.7176 31.8771C59.2221 31.4321 60.3454 30.6898 61.4247 29.5831C62.5161 30.0564 63.3186 30.6507 64.205 31.4265C64.443 31.6335 64.6811 31.8405 64.9264 32.0538C65.1949 32.2908 65.1949 32.2908 65.4688 32.5326C64.3249 34.9377 61.9095 35.8753 59.5014 36.8248C58.1224 37.1923 56.866 37.2331 55.4429 37.223C55.1736 37.2211 54.9042 37.2193 54.6268 37.2174C50.8168 37.1413 47.9905 36.0357 45.1813 33.5029C42.3332 30.6053 41.4252 27.4072 41.4703 23.4821C41.6914 20.0343 43.2617 17.2616 45.8382 14.918C48.7497 12.5768 51.5721 11.8236 55.2533 11.7842Z" fill="#30342D" fill-opacity="0.3"/>
<path d="M122.469 11.7549C124.61 11.7549 126.751 11.7549 128.957 11.7549C131.548 17.2733 134.069 22.8102 136.469 28.4079C137.481 27.263 138.053 25.9805 138.654 24.612C138.762 24.3695 138.87 24.127 138.981 23.8771C139.327 23.1024 139.669 22.3266 140.011 21.5508C140.239 21.0393 140.467 20.5278 140.694 20.0164C141.917 17.2679 143.125 14.5136 144.322 11.7549C146.351 11.7549 148.379 11.7549 150.469 11.7549C148.835 15.606 147.128 19.4237 145.395 23.2348C145.202 23.6594 145.009 24.0841 144.816 24.5087C144.671 24.8266 144.671 24.8266 144.524 25.1508C143.446 27.5257 142.379 29.9053 141.313 32.2855C141.223 32.4873 141.133 32.6891 141.039 32.8971C140.54 34.0128 140.041 35.1287 139.542 36.2447C137.514 36.2447 135.485 36.2447 133.396 36.2447C132.424 34.1067 131.454 31.9687 130.483 29.8306C130.032 28.837 129.581 27.8434 129.129 26.8498C127.33 22.8896 125.533 18.9288 123.748 14.9628C123.617 14.6735 123.487 14.3842 123.352 14.0861C123.234 13.8247 123.117 13.5633 122.996 13.294C122.894 13.0663 122.791 12.8385 122.685 12.6038C122.469 12.0814 122.469 12.0814 122.469 11.7549Z" fill="#30342D" fill-opacity="0.3"/>
<path d="M73.4688 11.7549C75.5208 11.7549 77.5728 11.7549 79.6869 11.7549C79.6869 18.3279 79.6869 24.901 79.6869 31.6733C83.9049 31.6733 88.1229 31.6733 92.4688 31.6733C92.4688 33.1818 92.4688 34.6904 92.4688 36.2447C86.1988 36.2447 79.9288 36.2447 73.4688 36.2447C73.4688 28.163 73.4688 20.0814 73.4688 11.7549Z" fill="#30342D" fill-opacity="0.3"/>
<path d="M30.4688 12.8807C30.4688 13.8455 30.4688 13.8455 29.9102 14.5691C29.6577 14.7548 29.4051 14.9405 29.1448 15.1318C28.5902 15.0404 28.039 14.9293 27.49 14.8103C23.9054 14.5484 21.0732 14.6001 18.2162 16.9734C16.3071 18.8713 15.2298 21.3216 15.0784 23.9755C15.2303 26.6378 16.3183 29.0522 18.1994 30.9789C20.0245 32.4545 22.3314 33.5099 24.718 33.5026C25.0094 33.5018 25.3008 33.5009 25.6011 33.5001C26.4631 33.4638 27.2801 33.3538 28.1312 33.2212C28.863 33.1295 28.863 33.1295 29.4758 33.1408C30.1585 33.7237 30.1585 33.7237 30.4688 34.4272C30.4688 34.6394 30.4688 34.8516 30.4688 35.0703C27.5578 36.2825 23.792 36.6784 20.7256 35.6733C20.1387 35.4032 20.1387 35.4032 19.5465 35.0703C19.3033 34.9373 19.0602 34.8042 18.8096 34.6671C15.9374 32.9544 13.5917 30.5006 12.7344 27.2693C12.1198 23.3513 12.4775 19.993 14.8094 16.6795C18.718 11.9681 24.7365 10.4937 30.4688 12.8807Z" fill="#30342D" fill-opacity="0.3"/>
<path d="M23.4759 0.00109127C24.1618 0.00759488 24.8478 0.0140985 25.5545 0.0207992C25.5545 1.78978 25.5545 3.55876 25.5545 5.38135C26.4596 5.48541 27.3647 5.58946 28.2973 5.69667C30.5752 6.13347 32.5111 6.74365 34.4688 7.90396C34.0739 8.68219 33.7666 9.18035 33.0973 9.79592C31.7776 9.66082 30.5583 9.2386 29.3045 8.84994C27.1158 8.21572 25.0996 8.00537 22.8116 7.90396C22.8116 6.13498 22.8116 4.366 22.8116 2.54341C19.4534 2.95273 16.216 3.62728 13.3 5.28527C12.5259 5.69667 12.5259 5.69667 11.7759 5.5193C11.0702 5.00452 10.8433 4.54679 10.4688 3.80472C14.454 1.34715 18.6557 -0.0446108 23.4759 0.00109127Z" fill="#30342D" fill-opacity="0.3"/>
<path d="M8.29926 5.87793C9.85763 6.52414 10.7476 7.60519 11.8586 8.82299C12.5104 9.45356 12.5104 9.45356 13.267 9.34777C14.1207 8.97074 14.8767 8.52082 15.6626 8.02079C17.3979 6.9696 19.3739 5.87793 21.4688 5.87793C21.4688 6.80154 21.4688 7.72516 21.4688 8.67676C21.2233 8.77869 20.9778 8.88061 20.7249 8.98562C17.9996 10.1541 15.351 11.427 13.2823 13.5747C12.064 13.0619 11.3016 12.392 10.3904 11.4537C9.4457 10.4555 9.4457 10.4555 8.29926 9.72633C8.20658 9.9207 8.1139 10.1151 8.01841 10.3153C7.53495 11.2243 6.96963 12.0466 6.38612 12.8969C4.81516 15.2999 3.83826 17.7646 3.31621 20.5718C2.37655 20.5718 1.43689 20.5718 0.46875 20.5718C1.05301 14.5847 4.26315 10.2046 8.29926 5.87793Z" fill="#30342D" fill-opacity="0.3"/>
<path d="M0.492498 27.4287C1.4311 27.4287 2.36969 27.4287 3.33674 27.4287C3.41877 27.7164 3.50081 28.0042 3.58533 28.3006C4.65331 31.8979 6.00634 34.9396 8.31415 37.9243C9.54145 37.4075 10.3228 36.7216 11.2473 35.7815C11.624 35.4013 11.624 35.4013 12.0083 35.0134C12.1971 34.8195 12.386 34.6256 12.5805 34.4258C13.6815 34.9167 14.508 35.5139 15.4247 36.2844C17.2668 37.7309 19.2707 38.5296 21.4688 39.3238C21.4688 40.2474 21.4688 41.171 21.4688 42.1226C19.7132 41.9292 18.3086 41.3638 16.758 40.5701C16.4253 40.4061 16.4253 40.4061 16.0858 40.2387C15.1509 39.7698 14.3936 39.3586 13.6471 38.624C12.2033 38.6939 11.4925 39.5876 10.5362 40.5701C10.2521 40.8592 9.96792 41.1483 9.67516 41.4461C9.46068 41.6693 9.24619 41.8926 9.02521 42.1226C5.39828 40.5597 3.08017 36.0468 1.69319 32.5945C1.54982 32.2238 1.54982 32.2238 1.40354 31.8456C1.3114 31.6084 1.21925 31.3712 1.12431 31.1268C0.6581 29.8559 0.383696 28.7814 0.492498 27.4287Z" fill="#30342D" fill-opacity="0.3"/>
<path d="M33.454 37.2246C34.046 37.8536 34.046 37.8536 34.4688 38.6126C34.1305 39.6536 34.1305 39.6536 33.3787 40.1104C30.885 41.233 28.7718 42.0827 26.0129 42.0827C26.0129 44.0294 26.0129 45.9761 26.0129 47.9817C20.4257 48.1728 16.2967 46.8728 11.4688 44.1647C11.4688 42.7767 11.4688 42.7767 11.9761 42.1694C12.1435 42.0263 12.311 41.8831 12.4835 41.7357C13.9143 42.176 15.1877 42.7526 16.5 43.4707C18.1464 44.2655 19.779 44.6391 21.5735 44.9021C22.2572 45.0023 22.9408 45.1025 23.6452 45.2057C23.6452 43.3735 23.6452 41.5413 23.6452 39.6536C24.025 39.5946 24.4047 39.5355 24.796 39.4747C28.4547 38.8942 28.4547 38.8942 31.8765 37.4916C32.4393 37.2246 32.4393 37.2246 33.454 37.2246Z" fill="#30342D" fill-opacity="0.3"/>
<path d="M32.5663 29.3877C34.8042 31.2142 36.8252 33.2394 38.862 35.2794C39.213 35.6296 39.564 35.9797 39.9151 36.3298C40.7672 37.1797 41.6183 38.0306 42.4688 38.8822C40.553 42.8968 35.8307 44.9286 31.834 46.3978C30.6628 46.7622 29.6999 47.0203 28.4688 47.0203C28.4688 46.1252 28.4688 45.23 28.4688 44.3076C28.7456 44.2333 29.0225 44.159 29.3077 44.0825C32.6469 43.1328 35.7522 41.8921 38.3712 39.5604C37.8474 38.3177 37.0952 37.5457 36.1277 36.6119C35.8218 36.3133 35.5158 36.0148 35.2006 35.7072C34.8806 35.3982 34.5606 35.0891 34.2309 34.7707C33.5954 34.1568 32.9613 33.5414 32.3289 32.9243C32.0471 32.6524 31.7654 32.3804 31.4751 32.1002C30.859 31.4222 30.859 31.4222 30.859 30.7441C31.4143 30.2753 31.9833 29.8219 32.5663 29.3877Z" fill="#30342D" fill-opacity="0.3"/>
<path d="M28.4688 1.00148C30.4365 0.886032 31.849 1.22805 33.6547 1.9594C34.0335 2.11065 34.0335 2.11065 34.42 2.26496C37.5667 3.58272 40.0733 5.50434 42.4688 7.84957C41.9095 9.21797 40.8525 10.128 39.7771 11.136C39.581 11.3224 39.3849 11.5087 39.1828 11.7007C38.5582 12.2936 37.9312 12.8842 37.3041 13.4748C36.8794 13.8772 36.4547 14.2797 36.0303 14.6824C34.9912 15.6675 33.9501 16.6506 32.9078 17.6326C31.8857 17.3072 31.5598 17.0612 30.859 16.3282C31.3846 15.1322 32.1411 14.3762 33.1025 13.4697C33.4084 13.1796 33.7143 12.8896 34.0295 12.5908C34.3495 12.2906 34.6695 11.9905 34.9992 11.6812C35.3253 11.3731 35.6512 11.0649 35.9769 10.7564C36.7735 10.0034 37.5716 9.25192 38.3712 8.50177C37.7592 6.7484 35.9233 6.06411 34.2736 5.24078C32.3764 4.48849 30.4242 3.88185 28.4688 3.28418C28.4688 2.53089 28.4688 1.7776 28.4688 1.00148Z" fill="#30342D" fill-opacity="0.3"/>
<path d="M8.53327 13.7139C9.3294 14.0963 9.83902 14.3939 10.4688 15.0421C10.3745 15.781 10.1653 16.3324 9.83241 16.993C8.83575 18.9935 8.73351 20.8485 8.73488 23.0532C8.73422 23.475 8.73422 23.475 8.73354 23.9054C8.77068 26.1206 9.04047 28.0758 10.0454 30.0681C10.4688 30.9812 10.4688 30.9812 10.4284 31.7076C10.1078 32.3914 9.73254 32.8097 9.17843 33.3057C8.21069 32.9736 8.21069 32.9736 7.70413 32.0527C6.64471 29.5263 6.02596 27.4653 5.95262 24.672C4.14294 24.672 2.33327 24.672 0.46875 24.672C0.46875 23.9049 0.46875 23.1379 0.46875 22.3476C2.27843 22.3476 4.0881 22.3476 5.95262 22.3476C5.97258 21.827 5.99254 21.3065 6.0131 20.7702C6.23311 18.1991 7.14579 15.8563 8.53327 13.7139Z" fill="#30342D" fill-opacity="0.3"/>
<path d="M166.969 16.6533L170.866 26.2043H163.072L166.969 16.6533Z" fill="white"/>
</svg>
